<svg width="380" height="120" viewBox="0 0 380 120" xmlns="http://www.w3.org/2000/svg">
  <!-- Concept A: Aperture mark — camera-iris geometry -->
  <g transform="translate(20,20)">
    <circle cx="40" cy="40" r="36" fill="none" stroke="#0B0F1A" stroke-width="3"/>
    <g fill="#5B6CFF">
      <polygon points="40,8 64,28 56,40 40,40"/>
      <polygon points="72,40 60,60 48,52 56,40 64,28"/>
      <polygon points="60,72 36,68 40,52 48,52 60,60"/>
      <polygon points="20,68 16,44 32,40 40,52 36,68"/>
      <polygon points="8,32 28,16 40,28 32,40 16,44"/>
      <polygon points="40,8 40,28 28,16"/>
    </g>
    <circle cx="40" cy="40" r="14" fill="#0B0F1A"/>
    <circle cx="40" cy="40" r="6" fill="#5B6CFF"/>
  </g>
  <text x="110" y="68" font-family="Inter, system-ui, sans-serif" font-size="32" font-weight="600" fill="#0B0F1A" letter-spacing="-1.2">
    HeadshotDesk
  </text>
</svg>
